Screen
 
http://bayimg.com/mAofNaadp

Seeding Time 24/7

Don't Forget To Say Thanks If You Like My Post



-=Media Info=-

Format : AVI
Format/Info : Audio Video Interleave
File size : 710 MiB
Duration : 1h 15mn
Overall bit rate : 1 323 Kbps
Writing library : VirtualDub build 32817/release

Video
ID : 0
Format : MPEG-4 Visual
Format profile : Advanced Simple@L5
Format settings, BVOP : 2
Format settings, QPel : No
Format settings, GMC : No warppoints
Format settings, Matrix : Default (H.263)
Muxing mode : Packed bitstream
Codec ID : XVID
Codec ID/Hint : XviD
Duration : 1h 15mn
Bit rate : 1 185 Kbps
Width : 706 pixels
Height : 562 pixels
Display aspect ratio : 5:4
Frame rate : 25.000 fps
Color space : YUV
Chroma subsampling : 40
Bit depth : 8 bits
Scan type : Progressive
Compression mode : Lossy
Bits/(Pixel*Frame) : 0.119
Stream size : 636 MiB (90%)
Writing library : XviD 1.2.1 (UTC 2008-12-04)

Audio
ID : 1
Format : MPEG Audio
Format version : Version 1
Format profile : Layer 3
Codec ID : 55
Codec ID/Hint : MP3
Duration : 1h 15mn
Bit rate mode : Constant
Bit rate : 128 Kbps
Channel(s) : 1 channel
Sampling rate : 44.1 KHz
Compression mode : Lossy
Stream size : 68.6 MiB (10%)
Alignment : Split accross interleaves
Interleave, duration : 40 ms (1.00 video frame)
Interleave, preload duration : 501 ms